# xmcd CD database file generated by Grip 2.2
# 
# Track frame offsets:
#       182
#       11605
#       23842
#       41605
#       51595
#       69590
#       82575
#       95212
#       111025
#       122582
#       136917
#       152602
#       163502
#       176872
#       191015
#       203085
#       226455
#       239662
# 
# Disc length: 3333 seconds
# 
# Revision: 3
# Processed by: cddbd v1.4b41PL1 Copyright (c) Steve Scherf et al.
# Submitted via: Grip 2.2
# 
DISCID=f20d0312
DTITLE=John Lee Hooker - The Legendary
DYEAR=1900
DGENRE=
TTITLE0=Boom boom
TTITLE1=I´m in the mood
TTITLE2=I´m going home
TTITLE3=Dimples
TTITLE4=House rent boogie
TTITLE5=I´m so excited
TTITLE6=Hobo blues
TTITLE7=Dirty Groundhog
TTITLE8=I love you honey
TTITLE9=Sally Mae
TTITLE10=One way ticket
TTITLE11=No shoes
TTITLE12=Whiskey and wimmen
TTITLE13=Boogie chillen
TTITLE14=I´m mad again
TTITLE15=The waterfront
TTITLE16=Don´t look back
TTITLE17=Big legs, tight skirt
EXTD=
EXTT0=
EXTT1=
EXTT2=
EXTT3=
EXTT4=
EXTT5=
EXTT6=
EXTT7=
EXTT8=
EXTT9=
EXTT10=
EXTT11=
EXTT12=
EXTT13=
EXTT14=
EXTT15=
EXTT16=
EXTT17=
PLAYORDER=
